<?xml version="1.0" standalone="no"?>
<!DOCTYPE svg PUBLIC "-//W3C//DTD SVG 20010904//EN"
 "http://www.w3.org/TR/2001/REC-SVG-20010904/DTD/svg10.dtd">
<svg version="1.0" xmlns="http://www.w3.org/2000/svg"
 width="500.000000pt" height="400.000000pt" viewBox="0 0 500.000000 400.000000"
 preserveAspectRatio="xMidYMid meet">

<g transform="translate(0.000000,400.000000) scale(0.100000,-0.100000)"
fill="#000000" stroke="none">
<path d="M2290 3623 c-368 -35 -677 -114 -968 -246 -374 -170 -737 -444 -1001
-756 l-62 -73 132 -127 c73 -69 136 -126 140 -126 4 0 38 36 75 80 401 472
968 779 1587 860 150 19 455 20 607 1 620 -78 1201 -389 1587 -850 42 -50 80
-93 85 -95 5 -2 68 55 141 127 l131 130 -71 84 c-430 506 -1064 861 -1718 962
-202 32 -506 45 -665 29z"/>
<path d="M2335 2869 c-565 -45 -1083 -314 -1451 -752 -41 -48 -74 -91 -74 -95
0 -4 62 -69 138 -145 l139 -139 53 69 c260 333 613 554 1030 645 93 20 133 22
340 22 206 0 248 -2 338 -22 282 -62 538 -183 753 -358 80 -65 219 -209 278
-287 l43 -57 117 109 c64 60 126 120 139 134 l23 24 -63 78 c-281 350 -691
611 -1128 719 -210 51 -465 72 -675 55z"/>
<path d="M2385 2099 c-388 -37 -759 -255 -982 -577 l-37 -53 134 -134 c74 -74
138 -135 141 -135 4 0 23 29 44 65 46 77 155 198 235 260 386 297 936 264
1281 -76 59 -58 161 -191 172 -222 4 -13 277 242 277 260 0 21 -138 190 -211
257 -226 207 -496 326 -806 356 -118 11 -130 11 -248 -1z"/>
<path d="M2376 1096 c-89 -38 -145 -90 -191 -181 -38 -74 -40 -82 -40 -169 0
-83 3 -98 32 -157 39 -80 111 -150 191 -187 48 -23 71 -27 147 -27 80 0 97 3
157 32 82 39 145 100 184 179 26 53 29 69 29 159 0 87 -3 107 -27 157 -35 76
-95 138 -170 179 -57 30 -73 34 -158 36 -83 3 -102 1 -154 -21z"/>
</g>
</svg>
