<svg width="800" height="800" xmlns="http://www.w3.org/2000/svg" stroke="null">
 <g id="Layer_1">
  <title>Layer 1</title>
  <path stroke="null" fill="#6A6A6A" d="m722.56055,606.09695c0,-8.37342 -1.14183,-15.98562 -2.28366,-23.97843l43.38954,-38.44161l-38.061,-65.84553l-55.18845,18.64989c-12.17952,-10.27647 -25.88148,-18.26928 -41.10588,-23.97843l-11.4183,-56.71089l-76.122,0l-11.4183,56.71089c-15.2244,5.70915 -28.92636,13.70196 -41.10588,23.97843l-55.18845,-18.64989l-38.061,65.84553l43.38954,38.44161c-1.14183,7.99281 -2.28366,15.60501 -2.28366,23.97843s1.14183,15.98562 2.28366,23.97843l-43.38954,38.44161l38.061,65.84553l55.18845,-18.64989c12.17952,10.27647 25.88148,18.26928 41.10588,23.97843l11.4183,56.71089l76.122,0l11.4183,-56.71089c15.2244,-5.70915 28.92636,-13.70196 41.10588,-23.97843l55.18845,18.64989l38.061,-65.84553l-43.38954,-38.44161c1.14183,-7.99281 2.28366,-15.60501 2.28366,-23.97843zm-142.72876,76.122c-41.8671,0 -76.122,-34.2549 -76.122,-76.122s34.2549,-76.122 76.122,-76.122s76.122,34.2549 76.122,76.122s-34.2549,76.122 -76.122,76.122z" id="svg_7"/>
  <path stroke="null" fill="#6A6A6A" id="svg_5" d="m340.49531,102.6895c69.56888,0.6837 109.64911,-0.8842 133.55174,-0.52216c20.55876,8.95843 155.32571,121.36073 159.30951,126.71665l0.43113,104.89279l77.22165,35.64389l0,-113.33332c0.90821,-77.06742 -4.73022,-68.74457 -13.01544,-82.77308c-8.28522,-14.02851 -163.93502,-152.58079 -171.48616,-157.18228c-7.55114,-4.60149 -21.89682,-9.78237 -30.9109,-10.81165l-378.39646,2.05859c-32.55959,0 -59.19925,43.36791 -59.19925,96.37313l0,578.23874c0,53.00523 26.63967,96.37312 59.19925,96.37312l266.39664,0l-36.32916,-81.92878l-205.71966,-0.80192l-1.54531,-593.93408l200.49242,0.99036z"/>
  <path d="m183.36973,727.41833l0.4687,0c0.06756,-0.00013 0.11365,-0.05695 0.11343,-0.1154l0,-0.03931c0.13376,-0.00011 0.23081,-0.10053 0.23076,-0.21762c0.00005,-0.11918 -0.09509,-0.2171 -0.20583,-0.21701l-0.72245,0l0,0.47395c0.00011,0.06436 0.05554,0.11528 0.1154,0.11539l-0.00001,0zm0.58211,-0.50019l0,0l0.02493,0c0.09164,-0.00015 0.12104,0.08652 0.1206,0.12851c0.00009,0.0678 -0.05013,0.13283 -0.14552,0.12652l0,-0.25503l-0.00001,0zm-0.95578,0.52905c0.00009,0.08761 0.06687,0.12823 0.12063,0.12848l0.96955,0c0.06412,-0.00025 0.12032,-0.05067 0.12061,-0.12848l-1.21078,0l-0.00001,0z" id="svg_10" stroke="null"/>
  <rect stroke="null" id="svg_2" height="59.99998" width="244" y="216" x="216" fill="#6A6A6A"/>
  <rect stroke="null" id="svg_6" height="59.99998" width="244" y="356" x="216" fill="#6A6A6A"/>
  <rect stroke="null" id="svg_8" height="59.99998" width="114.00007" y="496" x="216" fill="#6A6A6A"/>
 </g>

</svg>