<svg width="800" height="800" xmlns="http://www.w3.org/2000/svg" fill="#6A6A6A">
 <g id="Layer_1">
  <title>Layer 1</title>
  <path d="m707.61106,224.22226l-615.22213,0c-48.33887,0 -87.88886,39.54999 -87.88886,87.88886l0,175.77776c0,48.33887 39.54999,87.88886 87.88886,87.88886l615.22213,0c48.33887,0 87.88886,-39.54999 87.88886,-87.88886l0,-175.77776c0,-48.33887 -39.54999,-87.88886 -87.88886,-87.88886zm-483.38883,219.7222l-87.88886,0l0,-87.88886l87.88886,0l0,87.88886zm153.80552,0l-87.88886,0l0,-87.88886l87.88886,0l0,87.88886zm153.80552,0l-87.88886,0l0,-87.88886l87.88886,0l0,87.88886z" id="svg_2" stroke="null"/>
  <g stroke="null" id="svg_3"/>
 </g>

</svg>