<svg width="800" height="800" xmlns="http://www.w3.org/2000/svg" stroke="null">
 <g id="Layer_1">
  <title>Layer 1</title>
  <path id="svg_7" fill="#6A6A6A" d="m756.5613,610.09704c0,-8.37342 -1.14183,-15.98562 -2.28366,-23.97843l43.38954,-38.44161l-38.061,-65.84553l-55.18845,18.64989c-12.17952,-10.27647 -25.88148,-18.26928 -41.10588,-23.97843l-11.4183,-56.71089l-76.122,0l-11.4183,56.71089c-15.2244,5.70915 -28.92636,13.70196 -41.10588,23.97843l-55.18845,-18.64989l-38.061,65.84553l43.38954,38.44161c-1.14183,7.99281 -2.28366,15.60501 -2.28366,23.97843s1.14183,15.98562 2.28366,23.97843l-43.38954,38.44161l38.061,65.84553l55.18845,-18.64989c12.17952,10.27647 25.88148,18.26928 41.10588,23.97843l11.4183,56.71089l76.122,0l11.4183,-56.71089c15.2244,-5.70915 28.92636,-13.70196 41.10588,-23.97843l55.18845,18.64989l38.061,-65.84553l-43.38954,-38.44161c1.14183,-7.99281 2.28366,-15.60501 2.28366,-23.97843zm-142.72876,76.122c-41.8671,0 -76.122,-34.2549 -76.122,-76.122s34.2549,-76.122 76.122,-76.122s76.122,34.2549 76.122,76.122s-34.2549,76.122 -76.122,76.122z" stroke="null"/>
  <path stroke="null" fill="#6A6A6A" d="m97.18366,142.70028l524.63625,-4.00001l0.15635,224.30294l97.02551,0.45302l0,-244.756c0,-37.05923 -29.33182,-67.38041 -65.18181,-67.38041l-586.63634,0c-35.85,0 -65.18181,30.32119 -65.18181,67.38041l0,404.28246c0,37.05923 29.33182,67.38041 65.18181,67.38041l293.31817,0l-0.00054,-81.38048l-263.31759,-1.99996l0,-364.2824z" id="svg_5"/>
  <path stroke="null" fill="#6A6A6A" id="svg_9" d="m259.39783,640.92559c-41.08289,14.89056 -52.13223,109.78893 -50.76937,103.63684l164.8403,2.11929c30.26093,3.69117 -15.12034,-13.8877 -11.94365,-105.08534l-102.12729,-0.67079z"/>
  <path stroke="null" fill="#6A6A6A" style="vector-effect: non-scaling-stroke;" id="svg_10" d="m183.36973,727.41833l0.4687,0c0.06756,-0.00013 0.11365,-0.05695 0.11343,-0.1154l0,-0.03931c0.13376,-0.00011 0.23081,-0.10053 0.23076,-0.21762c0.00005,-0.11918 -0.09509,-0.2171 -0.20583,-0.21701l-0.72245,0l0,0.47395c0.00011,0.06436 0.05554,0.11528 0.1154,0.11539zm0.58211,-0.50019l0,0l0.02493,0c0.09164,-0.00015 0.12104,0.08652 0.1206,0.12851c0.00009,0.0678 -0.05013,0.13283 -0.14552,0.12652l0,-0.25503zm-0.95578,0.52905c0.00009,0.08761 0.06687,0.12823 0.12063,0.12848l0.96955,0c0.06412,-0.00025 0.12032,-0.05067 0.12061,-0.12848l-1.21078,0z"/>
 </g>

</svg>