<svg width="800" height="800" xmlns="http://www.w3.org/2000/svg" stroke="null">
 <g id="Layer_1">
  <title>Layer 1</title>
  <ellipse ry="110" rx="110" id="svg_1" cy="145" cx="655" stroke-width="70" stroke="#6A6A6A" fill="none"/>
  <ellipse ry="110" rx="110" id="svg_3" cy="145" cx="145" stroke-width="70" stroke="#6A6A6A" fill="none"/>
  <line stroke="#6A6A6A" id="svg_4" y2="145" x2="540" y1="145" x1="250" stroke-width="60" fill="none"/>
  <ellipse ry="110" rx="110" id="svg_2" cy="633.00051" cx="221.99995" stroke-width="70" stroke="#6A6A6A" fill="none"/>
  <path id="svg_7" d="m756.5613,610.09704c0,-8.37342 -1.14183,-15.98562 -2.28366,-23.97843l43.38954,-38.44161l-38.061,-65.84553l-55.18845,18.64989c-12.17952,-10.27647 -25.88148,-18.26928 -41.10588,-23.97843l-11.4183,-56.71089l-76.122,0l-11.4183,56.71089c-15.2244,5.70915 -28.92636,13.70196 -41.10588,23.97843l-55.18845,-18.64989l-38.061,65.84553l43.38954,38.44161c-1.14183,7.99281 -2.28366,15.60501 -2.28366,23.97843s1.14183,15.98562 2.28366,23.97843l-43.38954,38.44161l38.061,65.84553l55.18845,-18.64989c12.17952,10.27647 25.88148,18.26928 41.10588,23.97843l11.4183,56.71089l76.122,0l11.4183,-56.71089c15.2244,-5.70915 28.92636,-13.70196 41.10588,-23.97843l55.18845,18.64989l38.061,-65.84553l-43.38954,-38.44161c1.14183,-7.99281 2.28366,-15.60501 2.28366,-23.97843zm-142.72876,76.122c-41.8671,0 -76.122,-34.2549 -76.122,-76.122s34.2549,-76.122 76.122,-76.122s76.122,34.2549 76.122,76.122s-34.2549,76.122 -76.122,76.122z" fill="#6A6A6A" stroke="null"/>
  <line stroke="#6A6A6A" fill="none" stroke-width="60" x1="178.0001" y1="276.00003" x2="202.0001" y2="506.00045" id="svg_9"/>
 </g>

</svg>