<svg xmlns="http://www.w3.org/2000/svg" class="color-theme" id="network" data-name="Layer 1" width="38" height="38" viewBox="-1 -1 38 38" y="76">
  <defs>
    <style>.color-theme{fill:#ffffff}.path-size{fill:none}</style>
  </defs>
  <path d="M27 32H9a1 1 0 000 2h18a1 1 0 000-2zm-9-1.91a14 14 0 10-14-14 14 14 0 0014 14zm0-2a12 12 0 01-6.54-1.95 3 3 0 00.42 0A2.26 2.26 0 0014 24.8a18 18 0 007.67-3.63 2.22 2.22 0 00.82.16 2.26 2.26 0 001.75-.84 17.16 17.16 0 002.29.44 17.92 17.92 0 002.31.15h.1A12 12 0 0118 28.09zm-3.09-18a16.76 16.76 0 017.48-.77 17.27 17.27 0 013.93 1 15.66 15.66 0 01-2.9 6.71 2.23 2.23 0 00-1-.23 2.27 2.27 0 00-1.62.68 16 16 0 01-6.35-6 2.24 2.24 0 00.43-1.32zm14.24 1.59a11.87 11.87 0 01.85 4.41 12 12 0 01-.49 3.35 16.59 16.59 0 01-2.82-.1 18.39 18.39 0 01-2-.37 2.57 2.57 0 00-.16-.75 17.4 17.4 0 003.3-7.22q.68.33 1.32.72zM18 4.09a11.94 11.94 0 018.57 3.61v1a18.38 18.38 0 00-12.22-.07 2.28 2.28 0 00-1.35-.7 14.72 14.72 0 01-.47-2.5A12 12 0 0118 4.09zm-7 2.28a15.48 15.48 0 00.42 1.91 2.25 2.25 0 00-1 1.88 2.21 2.21 0 000 .37 17.92 17.92 0 00-4.3 3.9A12 12 0 0111 6.37zm.25 5.54a2.27 2.27 0 001.41.51 2.63 2.63 0 00.49-.06A17.74 17.74 0 0020.2 19v.1a2.32 2.32 0 00.25 1A16.52 16.52 0 0114 23.15a2.24 2.24 0 00-4.33.43c-.36 0-.71 0-1.07-.07a11.94 11.94 0 01-2.52-6.16 16 16 0 015.16-5.44z"/>
  <path class="path-size" d="M0 0h36v36H0z"/>
</svg>