<svg xmlns="http://www.w3.org/2000/svg" class="color-theme" id="vm" data-name="Layer 1" width="38" height="38" viewBox="-1 -1 38 38" y="1672">
  <defs>
    <style>.color-theme{fill:#ffffff}.path-size{fill:none}</style>
  </defs>
  <path class="path-size" d="M0 0h36v36H0z"/>
  <path d="M10 6h14v2h2V6a2 2 0 00-2-2H9.87A1.87 1.87 0 008 5.87V12h2z"/>
  <path d="M29.91 10H16v2h7.91a.09.09 0 01.09.09V18h2v-5.91a.09.09 0 01.09-.09h3.82a.09.09 0 01.09.09v13.82a.09.09 0 01-.09.09h-7.82a.09.09 0 01-.09-.09v-9.82A2.08 2.08 0 0019.91 14H6.09A2.08 2.08 0 004 16.09v13.82A2.08 2.08 0 006.09 32h13.82A2.08 2.08 0 0022 29.91v-1.82a.09.09 0 01.09-.09h7.82A2.08 2.08 0 0032 25.91V12.09A2.08 2.08 0 0029.91 10zM6 29.91v-13.8a.11.11 0 01.11-.11h13.8a.09.09 0 01.09.09v9.82a.09.09 0 01-.09.09h-3.82a.09.09 0 01-.09-.09V20h-2v5.91A2.08 2.08 0 0016.09 28h3.82a.09.09 0 01.09.09v1.82a.09.09 0 01-.09.09H6.09a.09.09 0 01-.09-.09z"/>
</svg>