<?xml version="1.0" encoding="iso-8859-1"?>
<!-- Generator: Adobe Illustrator 16.0.0, SVG Export Plug-In . SVG Version: 6.00 Build 0)  -->
<!DOCTYPE svg PUBLIC "-//W3C//DTD SVG 1.1//EN" "http://www.w3.org/Graphics/SVG/1.1/DTD/svg11.dtd">
<svg version="1.1" id="Capa_1" xmlns="http://www.w3.org/2000/svg" xmlns:xlink="http://www.w3.org/1999/xlink" x="0px" y="0px"
	 width="964.699px" height="964.699px" viewBox="0 0 964.699 964.699" style="enable-background:new 0 0 964.699 964.699;"
	 xml:space="preserve">
<g>
	<path d="M924.801,392.5c12,0,23.5,2.1,34.1,6L808.1,233.899c-11.4-12.4-27.4-19.5-44.199-19.5H482.4H201
		c-16.8,0-32.9,7.1-44.2,19.5L5.9,398.5c10.7-3.9,22.2-6,34.1-6H924.801z"/>
	<path d="M40,750.3h884.699c22.102,0,40-17.9,40-40V492.5c0-22.101-17.898-40-40-40H40c-22.1,0-40,17.899-40,40v217.8
		C0,732.399,18,750.3,40,750.3z M806.199,539.1c34.4,0,62.301,27.9,62.301,62.3c0,34.4-27.9,62.3-62.301,62.3
		c-34.398,0-62.299-27.899-62.299-62.3C744,567,771.801,539.1,806.199,539.1z"/>
</g>
<g>
</g>
<g>
</g>
<g>
</g>
<g>
</g>
<g>
</g>
<g>
</g>
<g>
</g>
<g>
</g>
<g>
</g>
<g>
</g>
<g>
</g>
<g>
</g>
<g>
</g>
<g>
</g>
<g>
</g>
</svg>
