<svg id="Layer_1" enable-background="new 0 0 512 512" height="512" viewBox="0 0 512 512" width="512" xmlns="http://www.w3.org/2000/svg"><path d="m496 192c8.837 0 16-7.164 16-16v-80c0-8.836-7.163-16-16-16h-480c-8.837 0-16 7.164-16 16v80c0 8.836 7.163 16 16 16 8.822 0 16 7.178 16 16s-7.178 16-16 16c-8.837 0-16 7.164-16 16v96c0 8.836 7.163 16 16 16v64c0 8.836 7.163 16 16 16h256c8.837 0 16-7.164 16-16v-64h32v64c0 8.836 7.163 16 16 16h128c8.837 0 16-7.164 16-16v-64c8.837 0 16-7.164 16-16v-96c0-8.836-7.163-16-16-16-8.822 0-16-7.178-16-16s7.178-16 16-16zm-448 160h32v48h-32zm96 0v48h-32v-48zm64 0v48h-32v-48zm64 48h-32v-48h32zm96-48h32v48h-32zm96 48h-32v-48h32zm16-237.258c-18.625 6.604-32 24.398-32 45.258s13.375 38.655 32 45.258v66.742c-22.51 0-427.223 0-448 0v-66.742c18.625-6.603 32-24.398 32-45.258s-13.375-38.655-32-45.258v-50.742h448z"/><path d="m112 272h64c8.837 0 16-7.164 16-16v-96c0-8.836-7.163-16-16-16h-64c-8.837 0-16 7.164-16 16v96c0 8.836 7.163 16 16 16zm16-96h32v64h-32z"/><path d="m224 272h64c8.837 0 16-7.164 16-16v-96c0-8.836-7.163-16-16-16h-64c-8.837 0-16 7.164-16 16v96c0 8.836 7.163 16 16 16zm16-96h32v64h-32z"/><path d="m336 272h64c8.837 0 16-7.164 16-16v-96c0-8.836-7.163-16-16-16h-64c-8.837 0-16 7.164-16 16v96c0 8.836 7.163 16 16 16zm16-96h32v64h-32z"/></svg>